<svg width="511" height="314" viewBox="0 0 511 314" fill="none" xmlns="http://www.w3.org/2000/svg">
<path d="M73 148L216.5 30V89C372.746 123.157 411.239 179.392 481.572 282.144L482.5 283.5C372.706 206.44 324.655 181.738 225 203L216.5 244.5L73 148Z" fill="#96FFDF" stroke="black" stroke-width="1.5"/>
<path fill-rule="evenodd" clip-rule="evenodd" d="M157.584 1.9502C147.992 7.7982 26.0033 109.076 11.3033 123.396C8.77128 125.862 5.18128 130.926 3.32528 134.649C0.266276 140.785 -0.0437237 142.211 0.00427629 149.917C0.0602763 158.841 0.765276 161.029 7.25228 172.417C9.85128 176.979 13.4623 179.762 48.5043 204.21C87.3263 231.296 157.214 278.303 163.107 281.293C167.53 283.537 171.505 283.325 175.509 280.63C179.599 277.878 181.909 272.112 180.319 268.623C179.747 267.368 177.17 264.953 174.593 263.258C138.357 239.421 94.7653 209.957 64.9913 189.179C34.4223 167.847 27.5013 162.581 24.7413 158.558C19.3713 150.73 20.7343 143.007 28.6163 136.602C30.7713 134.85 46.5683 121.527 63.7213 106.995C110.505 67.3582 127.839 52.9642 150.407 35.0092C161.682 26.0392 171.919 17.5992 173.157 16.2532C177.349 11.6932 175.551 4.5942 169.396 1.4112C165.439 -0.634799 161.532 -0.456805 157.584 1.9502ZM223.82 1.9332C219.901 2.7772 220.317 2.5132 204.907 13.9092C185.726 28.0932 177.349 34.7512 127.745 75.2402C102.933 95.4922 75.4943 117.557 66.7703 124.272C48.5393 138.305 44.4053 143.207 44.4113 150.78C44.4173 157.933 46.9263 160.993 58.1033 167.469C76.1293 177.914 93.7013 189.183 119.407 206.782C180.735 248.768 189.67 254.559 212.174 266.903C226.568 274.798 231.311 275.859 237.049 272.469C240.581 270.383 244.788 263.998 246.307 258.417C246.931 256.126 247.405 245.233 247.417 232.917C247.428 221.092 247.839 210.784 248.329 210.009C249.647 207.928 273.276 209.196 291.407 212.322C346.667 221.848 400.402 248.345 468.907 299.845C476.607 305.633 484.465 311.168 486.368 312.143C493.353 315.722 502.805 313.196 508.023 306.354C512.027 301.104 511.933 295.231 507.735 288.417C506.041 285.667 500.013 275.767 494.341 266.417C449.675 192.787 410.175 147.323 363.823 116.19C332.257 94.9892 294.791 80.6132 258.907 75.9332C253.957 75.2882 248.966 74.5792 247.815 74.3592C245.811 73.9752 245.695 73.1742 245.054 55.4342C243.56 14.0812 241.002 5.1422 229.78 2.0582C228.2 1.6242 225.518 1.5682 223.82 1.9332ZM206.407 52.1272C192.642 62.4852 180.752 72.2702 151.615 97.2162C123.7 121.117 98.6863 141.807 92.2873 146.288C91.0443 147.159 90.2413 148.085 90.5033 148.346C90.7643 148.607 96.6413 152.384 103.562 156.739C110.483 161.093 131.842 175.622 151.027 189.025C182.595 211.081 212.715 230.909 214.657 230.915C215.069 230.916 215.407 228.04 215.407 224.523C215.407 216.673 217.076 199.3 218.527 192.039C219.907 185.135 225.709 178.461 231.779 176.796C237.036 175.354 272.838 176.324 286.907 178.29C330.917 184.44 378.571 202.462 423.962 230.12C428.943 233.155 434.037 236.184 435.282 236.85C436.755 237.638 434.675 234.105 429.33 226.739C394.282 178.44 360.342 147.658 320.907 128.404C294.813 115.663 272.434 109.584 240.038 106.435C222.43 104.723 218.962 103.367 215.657 96.8972C213.687 93.0412 213.393 90.8712 213.295 79.4552C213.234 72.2842 212.896 62.2712 212.545 57.2032L211.907 47.9882L206.407 52.1272Z" fill="black"/>
</svg>
