<svg width="202" height="119" viewBox="0 0 202 119" fill="none" xmlns="http://www.w3.org/2000/svg">
<path d="M153.861 59.5717C153.861 86.9543 128.923 109.152 98.1609 109.152C67.3987 109.152 42.4609 86.9543 42.4609 59.5717C42.4609 32.1892 67.3987 9.99121 98.1609 9.99121C128.923 9.99121 153.861 32.1892 153.861 59.5717Z" fill="#96FFDF"/>
<path fill-rule="evenodd" clip-rule="evenodd" d="M92.3056 0.260213C73.8297 1.63273 55.0671 8.10692 39.3729 18.5253C31.9176 23.4744 26.4473 27.9778 19.734 34.6921C12.3954 42.032 6.37153 49.3724 1.91903 56.4001L0 59.4293L1.54436 61.8662C9.72077 74.7676 22.038 88.0726 34.0964 97.0283C50.1947 108.985 69.6817 116.539 89.9328 118.675C94.0214 119.106 108.078 119.109 111.788 118.68C142.874 115.085 169.17 100.442 190.074 75.087C194.076 70.2331 201.333 60.1877 201.333 59.5015C201.333 59.1586 198.503 54.76 196.226 51.5644C189.456 42.0602 179.195 31.3845 169.862 24.1328C155.351 12.8587 138.031 4.9475 121.155 1.8855C111.912 0.208506 101.158 -0.397447 92.3056 0.260213ZM92.9471 12.3656C86.8875 13.1436 81.88 14.6076 76.6947 17.1176C62.5409 23.9682 52.5648 36.2644 49.5723 50.5481C48.6843 54.7863 48.477 61.148 49.0862 65.4604C50.122 72.7931 52.7954 79.4221 57.2816 85.7837C59.7669 89.308 65.2309 94.6772 69.1712 97.467C74.5548 101.279 81.8226 104.483 88.1843 105.851C96.4884 107.636 106.575 107.502 114.517 105.499C121.631 103.706 127.343 100.948 133.511 96.3285C142.959 89.2531 149.439 79.1921 151.887 67.7998C152.657 64.217 152.84 57.2905 152.263 53.5521C150.931 44.9136 147.909 38.1577 142.207 31.0753C134.955 22.0651 124.634 15.6834 113.394 13.2578C107.52 11.9902 98.8263 11.6108 92.9471 12.3656ZM49.4546 25.6682C38.3703 32.1593 27.057 42.4718 17.3452 54.9364C14.3454 58.7867 13.9332 59.3954 14.0756 59.766C14.3429 60.4627 19.0477 66.2824 22.3874 70.0478C29.7036 78.2964 37.7514 85.6343 44.5997 90.3009C46.6813 91.7194 51.2465 94.4552 51.3534 94.3483C51.4021 94.2998 51.0424 93.7578 50.5544 93.1441C50.0663 92.5301 48.8457 90.7917 47.8421 89.2805C38.3523 74.9934 36.0094 58.3079 41.3187 42.8223C43.3034 37.033 46.1711 31.6003 49.6462 27.0459C50.5356 25.88 51.2185 24.8811 51.1636 24.8259C51.1084 24.771 50.3393 25.1499 49.4546 25.6682ZM151.465 26.8149C154.467 30.7503 157.759 36.6848 159.444 41.1987C163.812 52.9077 163.953 65.0258 159.856 76.8275C158.191 81.6254 154.135 88.9349 151.029 92.7364C150.374 93.538 149.891 94.2463 149.955 94.3105C150.107 94.4629 155.029 91.3652 158.371 89.0138C164.357 84.8026 173.633 76.2155 179.264 69.6732C182.129 66.3444 187.118 60.1647 187.279 59.7453C187.485 59.207 182.56 52.8922 177.586 47.3182C172.695 41.8369 166.292 35.9479 160.532 31.6315C156.493 28.6053 150.588 24.7135 150.036 24.7135C149.94 24.7135 150.583 25.6592 151.465 26.8149ZM70.0756 41.4153C67.6965 42.0989 65.9728 43.1634 63.9154 45.2201C62.419 46.7158 61.7828 47.5897 61.001 49.224C59.5323 52.2943 59.3385 53.5129 59.3367 59.6821C59.335 65.7589 59.4886 66.7028 60.9943 69.8665C62.97 74.0177 67.0463 77.1769 71.3572 77.8978C72.5996 78.1056 80.9646 78.1628 101.672 78.1051C133.096 78.0177 130.695 78.1363 134.024 76.5063C135.852 75.6111 138.628 73.0406 139.736 71.2168C140.211 70.4337 140.918 68.8951 141.305 67.7973C142.001 65.8256 142.009 65.7314 142.01 59.9319C142.011 53.4647 141.875 52.5205 140.505 49.5197C139.012 46.2492 136.813 43.9278 133.805 42.4468C130.622 40.88 132.277 40.9534 100.548 40.9697C73.8929 40.9834 71.4544 41.0189 70.0756 41.4153Z" fill="black"/>
</svg>
