<svg width="274" height="218" viewBox="0 0 274 218" fill="none" xmlns="http://www.w3.org/2000/svg">
<path fill-rule="evenodd" clip-rule="evenodd" d="M53.1644 102.972C51.3555 104.786 51.2923 106.79 52.9298 110.41C53.5618 111.808 53.9145 112.483 54.3743 114.846C55.1162 118.659 55.6982 121.952 55.6982 128.681C55.6464 134.304 55.2711 141.41 54.9863 144.979L54.4843 156.383C54.096 161.634 53.7307 170.093 52.6777 171.703C52.6777 171.703 52.0065 172.713 50.9997 172.376C49.1158 172.167 45.8253 166.73 42.4601 162.096C41.894 161.422 40.1847 158.268 38.6618 155.087C37.1385 151.907 34.9517 147.447 33.8019 145.176C31.7701 141.162 27.226 128.469 26.6984 125.332C26.554 124.476 25.4846 121.467 24.3214 118.647C22.6788 114.664 21.864 113.195 20.6717 112.071C16.9994 108.607 10.1952 109.547 9.04181 113.841C8.7107 115.074 8.79738 116.46 9.46313 120.552C11.2536 131.559 11.0722 140.862 9.77207 153.768C8.9033 162.391 5.77094 178.651 4.73172 183.321C3.6925 187.991 3.3086 191.975 3.62559 193.669C4.00927 195.72 5.69227 197.208 8.51649 197.995C8.51649 197.995 11.0616 198.086 12.52 197.472C13.9785 196.859 15.713 195.073 16.4074 189.78C17.1017 184.488 17.3403 181.739 18.6153 173.067C19.4556 167.352 20.3551 162.144 20.6141 161.496C20.8726 160.847 21.3147 158.137 21.5956 155.473C21.8769 152.81 22.2088 150.528 22.3335 150.403C22.7345 150.002 23.6152 151.023 24.3516 152.743C29.219 164.118 39.413 179.926 45.8252 185.805C51.8581 191.336 53.4757 191.258 58.121 187.868C59.8064 186.639 62.5231 182.223 63.7448 178.727C64.8385 175.598 66.1292 159.868 66.3179 153.387C66.4085 150.277 66.6612 146.493 66.8797 144.979C67.0982 143.465 67.2857 137.183 67.2967 131.018L67.3167 119.811C67.3167 119.811 67.2967 115.691 67.2967 114.846C67.2967 113.033 65.975 108.015 64.3246 105.848C62.8515 103.914 59.7256 101.798 56.1311 101.798C54.9153 101.634 54.0202 102.115 53.1644 102.972ZM197.851 21.5571C196.492 22.2968 196.832 21.6948 176.609 59.1129C158.202 93.1719 158.464 92.5966 160.472 94.4869C161.301 95.2679 161.969 95.4398 164.738 95.5853C168.516 95.7843 170.292 95.3293 171.753 93.7877C172.311 93.1978 174.371 89.7069 176.33 86.03C178.289 82.3531 180.263 79.0348 180.718 78.6565C181.461 78.0379 182.633 77.9683 192.281 77.9683C202.986 77.9683 203.018 77.971 203.581 78.8531C203.891 79.34 204.953 82.6575 205.94 86.2254C206.927 89.7934 208.062 93.1558 208.462 93.6973C209.602 95.2369 211.711 95.7477 216.276 95.5884C220.045 95.4571 220.366 95.3804 221.37 94.3745C222.181 93.5608 222.43 92.9442 222.397 91.8281C222.346 90.145 203.302 25.4134 202.232 23.2851C201.845 22.5167 201.065 21.6759 200.498 21.4171C199.23 20.8378 199.167 20.8414 197.851 21.5571ZM115.507 22.5391C98.7295 24.6155 88.1441 37.2861 84.8263 54.668C83.6816 60.6647 85.261 69.0162 87.2092 74.6016C89.8173 82.0794 93.5134 87.9118 100.943 91.5018C111.475 96.5909 123.866 97.5551 134.142 92.4098C145.984 86.4807 152.462 74.6488 154.11 60.5735C154.965 53.2684 153.196 44.544 149.624 38.4462C147.68 35.1283 142.181 29.5418 139.044 27.6982C131.542 23.2898 124.186 21.4651 115.507 22.5391ZM35.8611 22.9548C27.6039 23.8258 20.4674 27.1527 14.531 32.899C7.94807 39.2709 3.98419 47.2826 2.44713 57.3224C-0.260968 75.0126 9.50082 89.915 27.1566 95.0438C32.137 96.4906 37.439 96.9955 42.1443 96.4713C49.7269 95.6262 56.9889 93.2765 59.4781 90.8623C61.0453 89.3424 61.1309 88.9239 62.9386 73.9225C64.4843 61.091 64.451 60.1189 62.4176 58.7834C61.5114 58.188 60.1375 58.1089 50.7119 58.1089C40.4947 58.1089 39.9855 58.1443 38.9255 58.9308C37.3617 60.0913 36.8054 61.4622 36.5559 64.773C36.1318 70.3899 37.0914 71.279 43.5767 71.2814C47.8312 71.283 48.9987 71.657 48.9987 73.018C48.9987 74.8415 48.0446 80.279 47.6013 80.981C46.7532 82.3244 44.5162 82.8592 39.7795 82.8505C32.3053 82.8372 26.4705 80.6141 21.8864 76.0327C16.2207 70.3698 14.8288 63.5752 17.4647 54.4489C20.864 42.6796 28.9287 36.6766 41.3401 36.6766C46.3138 36.6766 49.4503 37.3557 54.0987 39.4396C57.5032 40.9658 59.5283 41.1385 60.7907 40.0102C62.0116 38.9197 64.691 33.2352 64.691 31.7365C64.691 29.7982 63.3034 28.4532 59.4165 26.6242C55.2933 24.6839 50.728 23.4727 45.468 22.9225C41.2711 22.484 40.2923 22.4872 35.8611 22.9548ZM224.999 23.4101C223.564 24.1495 222.656 25.6415 222.218 27.9801C221.552 31.5481 221.706 33.7445 222.705 34.9058C223.914 36.3101 225.794 36.6561 232.269 36.6671C236.454 36.6742 237.919 36.8075 238.254 37.2114C238.588 37.6145 237.924 44.0674 235.556 63.4222C233.828 77.544 232.415 89.9677 232.415 91.031C232.415 93.4672 232.916 94.4063 234.591 95.1083C236.207 95.7847 241.478 95.8106 243.38 95.1511C245.911 94.2734 245.852 94.5664 249.447 65.285C251.269 50.4436 252.946 37.9519 253.174 37.526C253.557 36.8079 254.106 36.7415 260.753 36.6074C270.616 36.4088 271.285 35.9809 271.871 29.5016C272.212 25.7229 271.933 24.6501 270.36 23.6886C269.144 22.9449 268.282 22.9158 247.519 22.9197C231.172 22.9233 225.713 23.0421 224.999 23.4101ZM102.325 121.948C99.8201 122.732 91.9324 127.144 89.7359 128.988C88.6696 129.884 86.0957 132.033 84.0169 133.763C81.9376 135.494 79.3056 138.148 78.1679 139.662C77.0302 141.176 75.2813 143.477 74.2813 144.774C70.8224 149.263 68.8852 154.156 68.8765 158.424C68.871 160.985 70.7976 166.894 72.536 169.65C74.4022 172.607 78.7034 175.155 82.6116 175.617C87.945 176.247 94.5621 174.87 101.024 171.785C109.453 167.761 114.233 163.683 117.02 158.136C117.902 156.38 120.038 149.539 120.454 147.134C120.866 144.756 120.454 142 120.454 142C120.454 142 122 140.476 130.809 139.911C134.667 139.2 135.728 139.309 136.351 140.476C136.568 140.882 136.922 145.338 137.137 150.379C137.353 155.42 137.694 162.598 137.896 163.452C138.595 170.281 140.718 178.483 141.773 179.751C144.342 182.842 147.531 182.729 151.102 180.744C154.033 179.114 155.381 174.655 154.704 171.722C152.355 161.534 151.688 154.727 151.688 154.727C151.688 154.727 150.862 149.62 150.603 146.32C150.367 143.314 150.351 138.602 150.351 138.602L151.411 137.906C152.169 137.408 153.725 137.122 156.866 136.903C159.283 136.734 162.319 136.415 163.614 136.192C172.516 134.662 175.603 134.37 176.014 135.02C176.762 136.205 176.392 141.433 175.348 144.429C174.606 146.559 174.398 147.755 174.576 148.873C174.71 149.714 174.618 152.99 174.371 156.153C173.808 163.353 174.24 167.504 175.992 171.722C177.661 175.742 179.86 178.116 183.497 179.824C186.146 181.068 186.657 181.172 190.095 181.161C193.803 181.148 193.843 181.138 197.941 179.07C202.697 176.671 206.403 173.872 208.327 171.227C209.068 170.209 210.598 167.607 211.729 165.446C213.333 162.379 213.783 161.127 213.778 159.744C213.766 156.396 211.785 154.235 208.729 154.235C205.944 154.235 204.344 155.629 202.059 160.047C200.272 163.501 197.513 165.895 193.488 167.486C191.024 168.459 190.713 168.5 189.761 167.973C187.836 166.908 187.195 164.831 187.035 159.151C186.926 155.254 187.019 153.868 187.429 153.323C187.827 152.793 189.024 152.459 192.051 152.035C196.443 151.42 198.78 150.88 204.61 149.131C206.66 148.517 209.09 147.813 210.011 147.567C210.931 147.322 212.306 146.574 213.064 145.907C213.824 145.238 214.511 144.76 214.592 144.843C214.674 144.926 215.034 146.144 215.393 147.55C216.68 152.591 218.42 154.524 223.479 156.534C227.693 158.208 230.484 158.922 235.21 159.536C240.277 160.193 246.51 161.546 247.229 162.144C248.286 163.024 247.819 163.946 245.901 164.766C241.82 166.508 238.728 167.212 235.156 167.212C229.614 167.212 227.756 168.422 227.756 172.032C227.756 173.072 228.004 174.516 228.306 175.241C228.992 176.886 231.845 178.901 233.973 179.242C236.102 179.584 241.244 178.798 244.954 177.564C255.834 173.946 261.119 168.717 261.094 161.594C261.078 157.135 258.618 153.73 253.453 151.018C249.983 149.197 248.846 148.928 239.658 147.759C231.804 146.76 229.672 146.181 228.965 144.856C228.361 143.724 228.912 142.561 231.289 139.954C235.433 135.409 240.287 132.058 244.233 131.018C247.79 130.081 250.083 126.288 249.547 122.231C249.04 118.403 247.182 116.617 244.07 116.97C240.699 117.352 233.264 121.38 228.097 125.626C227.11 126.437 226.188 127.1 226.049 127.1C225.909 127.1 225.795 126.151 225.795 124.991C225.795 122.37 224.852 121.025 222.537 120.342C221.384 120.001 217.248 119.858 208.729 119.863C197.542 119.87 196.291 119.94 193.104 120.733C188.736 121.82 188.308 121.811 186.885 120.612C186.244 120.071 185.277 119.517 184.736 119.381C183.776 119.139 179.72 119.876 175.776 121.008C170.391 122.554 151.752 125.527 147.446 125.527C143.788 125.527 136.971 126.314 129.959 127.545C126.337 128.181 118.5 129.5 118.5 129.5C118.5 129.5 116.682 123.924 114.826 122.983C111.718 121.407 105.654 120.905 102.325 121.948ZM117.063 35.9317C105.898 37.0624 97.5133 45.9586 95.8915 58.3944C94.4957 69.0984 101.183 79.432 111.243 82.1159C113.991 82.8494 120.141 82.8321 123.313 82.0829C133.087 79.7733 139.127 70.4249 140.126 59.3772C140.936 50.4118 136.106 41.7456 128.148 37.8882C126.114 36.9019 125.625 36.2471 124.211 36.0973C122.984 35.9671 121.539 35.8094 121 35.7469C120.46 35.684 118.689 35.7674 117.063 35.9317ZM222.853 128.737C222.205 128.951 218.674 129.274 215.006 129.455C207.037 129.848 204.613 130.242 197.189 132.348C190.243 134.319 189.114 134.989 189.114 137.144V138.701L191.917 138.816C193.458 138.879 197.566 138.57 201.045 138.128C204.524 137.686 208.079 137.325 208.945 137.325C211.103 137.325 212.91 138.159 214.168 139.735L215.225 141.061L215.9 140.194C216.272 139.717 217.05 138.566 217.63 137.638C218.21 136.709 219.931 134.477 221.455 132.678C222.979 130.879 224.226 129.154 224.226 128.844C224.226 128.534 224.182 128.295 224.128 128.314C224.073 128.332 223.5 128.523 222.853 128.737ZM100.126 137.691C94.3412 141.004 90.333 144.666 86.843 149.829C83.803 154.326 83.0141 156.121 83.0035 158.563C82.996 160.277 83.162 160.715 84.1977 161.709C85.3605 162.826 89.2365 162.864 89.2365 162.864C90.5 162.864 96.7783 161.02 96.7783 161.02C101.5 159 103.596 156.8 105.742 153.633C108.148 150.08 110.944 141.198 110.237 139.35C109.914 138.506 109 135 104.116 135.929C103.611 135.931 101.816 136.724 100.126 137.691ZM194.898 51.3253C194.268 52.1252 188.653 62.7497 188.352 63.7124C188.126 64.4313 188.268 64.6708 189.107 64.9905C190.249 65.4258 196.354 65.5241 198.278 65.1384C199.887 64.8159 199.875 64.1957 198.127 57.7117C196.238 50.7047 195.905 50.046 194.898 51.3253Z" fill="black"/>
<path d="M145 59.5C145 74.1355 133.583 86 119.5 86C105.417 86 94 74.1355 94 59.5C94 44.8645 105.417 33 119.5 33C133.583 33 145 44.8645 145 59.5Z" fill="#96FFDF"/>
<path fill-rule="evenodd" clip-rule="evenodd" d="M114.14 22.6574C104.504 23.4879 94.7188 27.405 86.5339 33.7086C82.6458 36.703 79.7929 39.4278 76.2918 43.4902C72.4645 47.9311 69.3229 52.3724 67.0008 56.6244L66 58.4573L66.8054 59.9316C71.0696 67.7375 77.4933 75.7876 83.7821 81.2062C92.1778 88.4404 102.341 93.0112 112.902 94.3032C115.034 94.564 122.365 94.5661 124.3 94.3065C140.512 92.131 154.226 83.2716 165.128 67.9308C167.216 64.994 171 58.9161 171 58.5009C171 58.2934 169.524 55.6321 168.337 53.6986C164.806 47.9482 159.455 41.489 154.587 37.1013C147.019 30.28 137.986 25.4934 129.185 23.6408C124.365 22.6262 118.756 22.2595 114.14 22.6574ZM114.474 29.9817C111.314 30.4525 108.702 31.3382 105.998 32.8569C98.6166 37.0018 93.4138 44.4415 91.8531 53.0837C91.3901 55.648 91.2819 59.4971 91.5997 62.1063C92.1399 66.5429 93.5341 70.5537 95.8738 74.4027C97.1699 76.5351 100.02 79.7837 102.074 81.4716C104.882 83.7778 108.672 85.7168 111.99 86.5444C116.321 87.6245 121.581 87.543 125.724 86.3316C129.434 85.2465 132.413 83.5778 135.629 80.7828C140.557 76.5019 143.936 70.4146 145.213 63.5217C145.614 61.354 145.71 57.1632 145.409 54.9013C144.714 49.6746 143.138 45.587 140.165 41.3019C136.382 35.8503 131 31.9891 125.138 30.5215C122.075 29.7546 117.54 29.525 114.474 29.9817ZM91.7918 38.0303C86.0111 41.9577 80.1109 48.1972 75.0459 55.7388C73.4815 58.0684 73.2665 58.4367 73.3408 58.661C73.4802 59.0825 75.9338 62.6037 77.6756 64.8819C81.4912 69.8726 85.6883 74.3124 89.2598 77.1358C90.3455 77.9941 92.7263 79.6493 92.7821 79.5847C92.8075 79.5553 92.6199 79.2274 92.3653 78.8561C92.1108 78.4846 91.4742 77.4328 90.9508 76.5185C86.0017 67.8741 84.7798 57.7787 87.5487 48.4093C88.5838 44.9065 90.0793 41.6195 91.8917 38.8639C92.3556 38.1585 92.7117 37.5541 92.6831 37.5207C92.6543 37.4875 92.2532 37.7167 91.7918 38.0303ZM144.992 38.7241C146.559 41.1052 148.275 44.6958 149.154 47.427C151.432 54.5114 151.505 61.8434 149.369 68.9838C148.501 71.8868 146.385 76.3093 144.766 78.6094C144.424 79.0944 144.172 79.523 144.205 79.5618C144.285 79.654 146.851 77.7798 148.595 76.3571C151.716 73.8091 156.554 68.6136 159.491 64.6552C160.985 62.6411 163.587 58.9022 163.67 58.6484C163.778 58.3227 161.21 54.502 158.616 51.1295C156.065 47.8131 152.726 44.25 149.721 41.6384C147.615 39.8074 144.535 37.4527 144.247 37.4527C144.197 37.4527 144.533 38.0249 144.992 38.7241ZM97.9727 58.8365C97.9335 60.2558 98.639 61.6184 99.6667 62.8407C103.444 67.3336 109.862 68.0746 115.732 68.0746L119.061 68.0746L121.723 68.0746C128.237 68.0746 135.821 67.2715 139.03 61.6025C139.533 60.7149 139.835 59.7823 139.809 58.8365C139.783 57.8899 139.429 56.9661 138.882 56.095C135.562 50.8104 128.392 50.0888 122.151 50.0888L115.291 50.0888C109.705 50.0888 103.653 50.7587 99.8829 54.8809C98.7962 56.069 98.0119 57.4131 97.9727 58.8365Z" fill="black" stroke="black" stroke-width="3.5"/>
</svg>
